# xmcd CD database file
#
# Track frame offsets:
#	150
#	22223
#	33627
#	48852
#
# Disc length: 929 seconds
#
# Revision: 0
# Processed by: cddbd v1.5.1PL0 Copyright (c) Steve Scherf et al.
# Submitted via: CDex 1.51
#
DISCID=2f039f04
DTITLE=Cee Cee James - Whiskey Drenched Roadhouse Blues
DYEAR=2005
DGENRE=Blues
TTITLE0=Rock Me Baby
TTITLE1=Mary Had A Little Lamb
TTITLE2=I Just Wanna Make Love
TTITLE3=I'll Take Care Of You
EXTD=YEAR: 2005
EXTT0=
EXTT1=
EXTT2=
EXTT3=
PLAYORDER=
